<svg xmlns="http://www.w3.org/2000/svg" viewBox="0 0 382.2 367.37"><defs><style>.a{fill:#6d6d6d;}.b,.c{fill:#0071bc;}.c{stroke:#0071bc;stroke-linecap:round;stroke-linejoin:round;stroke-width:8px;}</style></defs><title>spark_logo</title><path class="a" d="M170.49,317.47a6.77,6.77,0,0,1,1.12,3.58,3.53,3.53,0,0,1-3.81,3.58c-1.57,0-2.8-.67-4.36-2.8-2.24-3.25-5.93-5.71-11.64-5.71-6.72,0-10.86,3.36-10.86,8.28,0,3.69,2.46,6.83,9.07,8.51l7.16,1.79c10,2.69,16.79,6.94,16.79,15.89,0,11.31-10.75,17.24-22.39,17.24-9.51,0-17.12-4.25-19.81-9.63a8.93,8.93,0,0,1-1.68-4.59,3.73,3.73,0,0,1,3.81-3.92c2,0,3.13,1.12,4,2.8,2.57,5.26,7.83,7.39,13.65,7.39,7.28,0,13.21-3,13.21-8.73,0-4.48-3.36-6.94-9.29-8.51l-8.4-2.24c-10.52-2.8-15.22-8.62-15.22-15.89,0-9.74,8.84-16.12,19.92-16.12C160.19,308.41,166.91,312,170.49,317.47Z" transform="translate(-127.85 -22.86)"/><path class="a" d="M241.33,338.18c0,20.15-15.11,29.88-27.54,29.88-9.85,0-17.46-5.82-19.81-12.54v28.88a4.8,4.8,0,0,1-4.7,4.7,4.73,4.73,0,0,1-4.7-4.7v-71a4.66,4.66,0,0,1,4.7-4.7,4.71,4.71,0,0,1,4.59,4.7v6.72c3.47-7.5,11.42-11.75,19.92-11.75C226.22,308.41,241.33,318.26,241.33,338.18Zm-9.29,0c0-14.66-10.52-21.71-19.59-21.71-8.73,0-19,6.38-19,21.71,0,15,10.3,21.71,19,21.71C221.52,359.89,232,353,232,338.18Z" transform="translate(-127.85 -22.86)"/><path class="a" d="M296.4,320.16v-6.72a4.71,4.71,0,0,1,4.59-4.7,4.66,4.66,0,0,1,4.7,4.7v49.81a4.65,4.65,0,1,1-9.29,0v-8.06c-2.24,6.83-10,12.87-19.92,12.87-12.42,0-27.53-9.74-27.53-29.88,0-19.92,15.11-29.77,27.53-29.77C285,308.41,292.93,312.66,296.4,320.16Zm.45,18c0-15.33-10.3-21.71-19-21.71-9.07,0-19.59,7.05-19.59,21.71s10.52,21.71,19.59,21.71C286.55,359.89,296.84,353.18,296.84,338.18Z" transform="translate(-127.85 -22.86)"/><path class="a" d="M353.25,312.88c0,2.69-2.13,4.48-6,4.48-10.63,0-17.68,8.39-18.8,15.33v30.44a4.65,4.65,0,1,1-9.29,0v-49.7a4.65,4.65,0,1,1,9.29,0v9.07c.67-3.81,7.84-14,19.81-14C351.46,308.52,353.25,310.42,353.25,312.88Z" transform="translate(-127.85 -22.86)"/><path class="a" d="M412.68,363.81a4,4,0,0,1-4,4,4,4,0,0,1-3-1.23l-24.18-25.52-8.84,8.84v13.21a4.65,4.65,0,1,1-9.29,0V292a4.65,4.65,0,0,1,9.29,0v46.79l28.09-28.65a4.28,4.28,0,0,1,7.39,2.91,3.88,3.88,0,0,1-1.23,2.91l-19.59,19.47,24.18,25.41A4.14,4.14,0,0,1,412.68,363.81Z" transform="translate(-127.85 -22.86)"/><path class="a" d="M419.94,361.79a5.65,5.65,0,1,1,5.71,5.71A5.71,5.71,0,0,1,419.94,361.79Z" transform="translate(-127.85 -22.86)"/><path class="a" d="M455.42,313.44V374c0,11.75-6.38,16.23-14.44,16.23a17.7,17.7,0,0,1-8.51-2c-1.68-.9-3.47-2.46-3.47-4.7a4,4,0,0,1,5.49-3.81c1.57.67,3.13,1.68,5.6,1.68,4.48,0,6-3.69,6-9v-59a4.73,4.73,0,0,1,4.7-4.7A4.63,4.63,0,0,1,455.42,313.44Zm-9.4-22.5a4.83,4.83,0,0,1,4.81-4.7,4.7,4.7,0,1,1,0,9.4A4.83,4.83,0,0,1,446,290.94Z" transform="translate(-127.85 -22.86)"/><path class="a" d="M506.57,317.47a6.77,6.77,0,0,1,1.12,3.58,3.53,3.53,0,0,1-3.81,3.58c-1.57,0-2.8-.67-4.37-2.8-2.24-3.25-5.93-5.71-11.64-5.71-6.72,0-10.86,3.36-10.86,8.28,0,3.69,2.46,6.83,9.07,8.51l7.16,1.79c10,2.69,16.79,6.94,16.79,15.89,0,11.31-10.75,17.24-22.39,17.24-9.51,0-17.13-4.25-19.81-9.63a8.93,8.93,0,0,1-1.68-4.59,3.73,3.73,0,0,1,3.8-3.92c2,0,3.13,1.12,4,2.8,2.57,5.26,7.84,7.39,13.66,7.39,7.27,0,13.21-3,13.21-8.73,0-4.48-3.36-6.94-9.29-8.51l-8.39-2.24c-10.52-2.8-15.22-8.62-15.22-15.89,0-9.74,8.84-16.12,19.92-16.12C496.27,308.41,503,312,506.57,317.47Z" transform="translate(-127.85 -22.86)"/><path class="b" d="M247.87,215.75a17.19,17.19,0,0,1,6.81,11.73,16.71,16.71,0,0,1-3.22,13.05,17.57,17.57,0,0,1-24.78,3.59l-91.93-68.47a17.42,17.42,0,0,1-6.43-10,20.16,20.16,0,0,1,0-8.7,17.43,17.43,0,0,1,6.43-10l91.93-68.47A17.57,17.57,0,0,1,251.46,82a16.72,16.72,0,0,1,3.22,13.05,16.67,16.67,0,0,1-6.81,11.73l-73,54.48Z" transform="translate(-127.85 -22.86)"/><path class="b" d="M457,161.28,384,106.8a16.67,16.67,0,0,1-6.81-11.73A16.72,16.72,0,0,1,380.39,82a17.57,17.57,0,0,1,24.78-3.59l91.93,68.47a17.43,17.43,0,0,1,6.43,10,20.16,20.16,0,0,1,0,8.7,17.42,17.42,0,0,1-6.43,10l-91.93,68.47a17.57,17.57,0,0,1-24.78-3.59,16.71,16.71,0,0,1-3.22-13.05A17.19,17.19,0,0,1,384,215.75Z" transform="translate(-127.85 -22.86)"/><polygon class="c" points="204.39 107.11 233.96 4 146.38 135.2 180.43 146.93 150.86 250.04 238.44 118.84 204.39 107.11 204.39 107.11"/></svg>